<mxfile host="Electron" agent="Mozilla/5.0 (Windows NT 10.0; Win64; x64) AppleWebKit/537.36 (KHTML, like Gecko) draw.io/26.2.2 Chrome/134.0.6998.178 Electron/35.1.2 Safari/537.36" version="26.2.2">
  <diagram name="Page-1" id="gEkmAfRDU77l_ovChhfK">
    <mxGraphModel dx="788" dy="524" grid="1" gridSize="10" guides="1" tooltips="1" connect="1" arrows="1" fold="1" page="1" pageScale="1" pageWidth="850" pageHeight="1100" math="0" shadow="0">
      <root>
        <mxCell id="0" />
        <mxCell id="1" parent="0" />
        <mxCell id="RHuF1rhBwbfCUbLMSdyM-2" style="edgeStyle=orthogonalEdgeStyle;rounded=0;orthogonalLoop=1;jettySize=auto;html=1;exitX=0.5;exitY=1;exitDx=0;exitDy=0;" edge="1" parent="1" source="RHuF1rhBwbfCUbLMSdyM-1">
          <mxGeometry relative="1" as="geometry">
            <mxPoint x="395" y="160" as="targetPoint" />
          </mxGeometry>
        </mxCell>
        <mxCell id="RHuF1rhBwbfCUbLMSdyM-1" value="" style="ellipse;whiteSpace=wrap;html=1;aspect=fixed;fillColor=#000000;" vertex="1" parent="1">
          <mxGeometry x="370" y="80" width="50" height="50" as="geometry" />
        </mxCell>
        <mxCell id="RHuF1rhBwbfCUbLMSdyM-4" style="edgeStyle=orthogonalEdgeStyle;rounded=0;orthogonalLoop=1;jettySize=auto;html=1;exitX=0.5;exitY=1;exitDx=0;exitDy=0;" edge="1" parent="1" source="RHuF1rhBwbfCUbLMSdyM-3">
          <mxGeometry relative="1" as="geometry">
            <mxPoint x="395" y="230" as="targetPoint" />
          </mxGeometry>
        </mxCell>
        <mxCell id="RHuF1rhBwbfCUbLMSdyM-3" value="Navigate to&amp;nbsp;&lt;br&gt;&quot;My Job Listings&quot;" style="rounded=1;whiteSpace=wrap;html=1;" vertex="1" parent="1">
          <mxGeometry x="347.5" y="160" width="95" height="40" as="geometry" />
        </mxCell>
        <mxCell id="RHuF1rhBwbfCUbLMSdyM-6" style="edgeStyle=orthogonalEdgeStyle;rounded=0;orthogonalLoop=1;jettySize=auto;html=1;exitX=0.5;exitY=1;exitDx=0;exitDy=0;" edge="1" parent="1" source="RHuF1rhBwbfCUbLMSdyM-5">
          <mxGeometry relative="1" as="geometry">
            <mxPoint x="395" y="300" as="targetPoint" />
          </mxGeometry>
        </mxCell>
        <mxCell id="RHuF1rhBwbfCUbLMSdyM-5" value="Select a Job" style="rounded=1;whiteSpace=wrap;html=1;" vertex="1" parent="1">
          <mxGeometry x="342.5" y="230" width="105" height="40" as="geometry" />
        </mxCell>
        <mxCell id="RHuF1rhBwbfCUbLMSdyM-8" style="edgeStyle=orthogonalEdgeStyle;rounded=0;orthogonalLoop=1;jettySize=auto;html=1;exitX=0.5;exitY=1;exitDx=0;exitDy=0;" edge="1" parent="1" source="RHuF1rhBwbfCUbLMSdyM-7" target="RHuF1rhBwbfCUbLMSdyM-9">
          <mxGeometry relative="1" as="geometry">
            <mxPoint x="398" y="370" as="targetPoint" />
          </mxGeometry>
        </mxCell>
        <mxCell id="RHuF1rhBwbfCUbLMSdyM-7" value="View Applications" style="rounded=1;whiteSpace=wrap;html=1;" vertex="1" parent="1">
          <mxGeometry x="340" y="300" width="115" height="40" as="geometry" />
        </mxCell>
        <mxCell id="RHuF1rhBwbfCUbLMSdyM-10" style="edgeStyle=orthogonalEdgeStyle;rounded=0;orthogonalLoop=1;jettySize=auto;html=1;exitX=0.5;exitY=1;exitDx=0;exitDy=0;" edge="1" parent="1" source="RHuF1rhBwbfCUbLMSdyM-9" target="RHuF1rhBwbfCUbLMSdyM-11">
          <mxGeometry relative="1" as="geometry">
            <mxPoint x="398" y="450" as="targetPoint" />
          </mxGeometry>
        </mxCell>
        <mxCell id="RHuF1rhBwbfCUbLMSdyM-9" value="Filter/Sort Applications" style="rounded=1;whiteSpace=wrap;html=1;" vertex="1" parent="1">
          <mxGeometry x="343.75" y="380" width="107.5" height="40" as="geometry" />
        </mxCell>
        <mxCell id="RHuF1rhBwbfCUbLMSdyM-12" style="edgeStyle=orthogonalEdgeStyle;rounded=0;orthogonalLoop=1;jettySize=auto;html=1;exitX=0.5;exitY=1;exitDx=0;exitDy=0;" edge="1" parent="1" source="RHuF1rhBwbfCUbLMSdyM-11">
          <mxGeometry relative="1" as="geometry">
            <mxPoint x="398" y="520" as="targetPoint" />
          </mxGeometry>
        </mxCell>
        <mxCell id="RHuF1rhBwbfCUbLMSdyM-11" value="Update Application Statuses" style="rounded=1;whiteSpace=wrap;html=1;" vertex="1" parent="1">
          <mxGeometry x="338.75" y="450" width="117.5" height="40" as="geometry" />
        </mxCell>
        <mxCell id="RHuF1rhBwbfCUbLMSdyM-13" value="" style="points=[[0.145,0.145,0],[0.5,0,0],[0.855,0.145,0],[1,0.5,0],[0.855,0.855,0],[0.5,1,0],[0.145,0.855,0],[0,0.5,0]];shape=mxgraph.bpmn.event;html=1;verticalLabelPosition=bottom;labelBackgroundColor=#ffffff;verticalAlign=top;align=center;perimeter=ellipsePerimeter;outlineConnect=0;aspect=fixed;outline=end;symbol=terminate;" vertex="1" parent="1">
          <mxGeometry x="377.5" y="520" width="40" height="40" as="geometry" />
        </mxCell>
      </root>
    </mxGraphModel>
  </diagram>
</mxfile>
